<svg xmlns="http://www.w3.org/2000/svg" id="Layer_2" data-name="Layer 2" viewBox="0 0 69.95 69.95"><defs><style>      .cls-1 {        fill: #fff;      }      .cls-1, .cls-2 {        stroke-width: 0px;      }      .cls-2 {        fill: #5da4c7;      }    </style></defs><g id="OBJECTS"><g><rect class="cls-2" y="0" width="69.95" height="69.95" rx="22.92" ry="22.92"></rect><path class="cls-1" d="M37.87,57.1c-3.3,0-6.34-.53-9.14-1.58s-5.22-2.55-7.27-4.5c-2.05-1.95-3.64-4.24-4.8-6.88-1.15-2.64-1.73-5.55-1.73-8.73s.58-6.09,1.73-8.73c1.15-2.64,2.75-4.93,4.8-6.88,2.04-1.95,4.47-3.44,7.27-4.5,2.8-1.05,5.85-1.58,9.14-1.58,3.85,0,7.3.68,10.33,2.03,3.04,1.35,5.57,3.3,7.6,5.84l-7.51,6.79c-1.35-1.59-2.83-2.8-4.44-3.63s-3.41-1.25-5.39-1.25c-1.71,0-3.28.28-4.71.83s-2.65,1.36-3.66,2.41c-1.01,1.05-1.81,2.31-2.38,3.78-.58,1.47-.86,3.1-.86,4.88s.29,3.42.86,4.88c.58,1.47,1.37,2.73,2.38,3.78,1.01,1.05,2.23,1.86,3.66,2.41,1.43.56,3,.83,4.71.83,1.99,0,3.78-.42,5.39-1.25s3.09-2.04,4.44-3.63l7.51,6.79c-2.03,2.5-4.56,4.44-7.6,5.81-3.04,1.37-6.48,2.06-10.33,2.06Z"></path></g></g></svg>